<?xml version="1.0" encoding="UTF-8"?>
<svg enable-background="new 0 0 40.833 52.177" viewBox="0 0 40.833 52.177" xmlns="http://www.w3.org/2000/svg">
 <defs>
  <radialGradient id="c" cx="-55.606" cy="861.79" r="23.359" gradientTransform="matrix(.9593 -.2824 .2824 .9593 -166.4 -818.12)" gradientUnits="userSpaceOnUse">
   <stop stop-color="#fcee23" offset="0"/>
   <stop stop-color="#076e3a" offset="1"/>
  </radialGradient>
  <radialGradient id="b" cx="-72.289" cy="853.23" r="4.2546" gradientTransform="matrix(.9943 .1068 -.1068 .9943 194.76 -834.59)" gradientUnits="userSpaceOnUse">
   <stop stop-color="#fcee23" offset="0"/>
   <stop stop-color="#076e3a" offset="1"/>
  </radialGradient>
  <radialGradient id="a" cx="55.595" cy="582.38" r="8.6226" gradientTransform="matrix(.9904 .1384 -.2052 1.4688 88.403 -840.02)" gradientUnits="userSpaceOnUse">
   <stop stop-color="#57585a" offset="0"/>
   <stop stop-color="#010101" offset="1"/>
  </radialGradient>
  <radialGradient id="f" cx="-62.681" cy="879.2" r="2.1602" gradientTransform="matrix(.9593 -.2824 .2824 .9593 -166.4 -818.12)" gradientUnits="userSpaceOnUse">
   <stop stop-color="#20341c" offset="0"/>
   <stop stop-color="#076e3a" offset="1"/>
  </radialGradient>
  <radialGradient id="e" cx="54.104" cy="582.54" r="9.2144" gradientTransform="matrix(.9904 .1384 -.2052 1.4688 88.403 -840.02)" gradientUnits="userSpaceOnUse">
   <stop stop-color="#57585a" offset="0"/>
   <stop stop-color="#010101" offset="1"/>
  </radialGradient>
  <radialGradient id="d" cx="6.3379" cy="19.245" r="4.2559" gradientTransform="matrix(.262 .9651 -.9651 .262 30.945 -2.4831)" gradientUnits="userSpaceOnUse">
   <stop stop-color="#fff200" offset="0"/>
   <stop stop-color="#006e3a" offset="1"/>
  </radialGradient>
 </defs>
 <path d="m39.162 49.039a18.429 2.184 0 1 0 -36.858 0 18.429 2.184 0 1 0 36.858 0" fill="#bdbec0" opacity=".75"/>
 <path d="m38.531,33.266c1.108-7.923-3.154-15.359-10.011-18.631l-.119-.479c.527-.604 2.064-3.513 2.262-3.491 2.062.221 3.913-1.271 4.136-3.333s-1.271-3.914-3.334-4.135-3.913,1.271-4.133,3.332c-.132,1.233.349,2.393 1.197,3.17 .125.116-1.225,3.212-1.395,3.904l-.719.188c-1.003-.33-2.049-.575-3.132-.726-.8-.112-1.594-.169-2.381-.174l-.487-.327c-.609-.123-1.166-.106-1.691-.007l.047.095-.155.373c-7.851.962-14.387,7.087-15.533,15.29-1.367,9.789 5.459,18.832 15.249,20.199s18.832-5.458 20.199-15.248z" fill="#8cc641" stroke="#046132" stroke-width=".4831"/>
 <path d="m38.146 30.614a17.338 17.338 0 1 0 -34.676 0 17.338 17.338 0 1 0 34.676 0" fill="url(#c)" stroke="#2b9145" stroke-width=".4831"/>
 <path d="m33.982 6.947a3.159 3.159 0 1 0 -6.318 0 3.159 3.159 0 1 0 6.318 0" fill="url(#b)" opacity=".41"/>
 <path d="m31.905,27.24c.925-1.464 1.015-3.35.164-4.922-1.022-1.89-3.861-3.76-6.049-3.084-3.92,1.21-1.946,8.268 1.182,9.188 1.321.389 2.939.713 3.975-.287 .282-.273.525-.573.728-.895z" fill="url(#a)"/>
 <path d="m22.083,43.042c-3.138.55-1.062-5.686.979-3.604 .865.881.269,3.385-.979,3.604z" fill="url(#f)" stroke="#20341c" stroke-width=".4203"/>
 <path d="m20.256,24.25c.041-1.883-.889-3.914-2.588-4.545-3.042-1.131-6.707,1.817-7.337,4.685-.349,1.588.034,3.664 1.497,4.652 2.499,1.689 6.273-.254 7.758-2.468 .435-.649.652-1.472.67-2.324z" fill="url(#e)"/>
 <path d="m13.641,21.835c.015.044.033.087.056.13 .657,1.224 2.306-.421 1.46-1.161-.652-.57-1.774.247-1.516,1.031z" fill="#fff"/>
 <path d="m27.043,20.7c-.668-1.022-2.503.146-1.701,1.208 .721.954 2.347-.22 1.701-1.208z" fill="#fff"/>
 <path d="m16.616,8.746c.173-1.15-.188-2.366-1.083-3.242-1.48-1.455-3.857-1.433-5.311.048s-1.43,3.857.049,5.31 3.857,1.431 5.31-.049c.255-.26 1.487.463 1.741.592 .547.279 1.532.526 1.265,1.359 .237-.243.498-.471.741-.707-.36.349-.659.674-.949,1.021 .044-.006.106-.021.147-.039-.029.03-.057.039-.063.08 .728-.214 1.542-.098 2.279-.208 .036-.277-.176-.62-.283-.868-.215-.498-.471-1.093-.85-1.491-.304-.319-.807-.507-1.194-.72-.187-.103-1.836-.84-1.799-1.086z" fill="#8cc63f" stroke="#006031" stroke-width=".4831"/>
 <path d="m16.052 8.136a3.159 3.159 0 1 0 -6.318 0 3.159 3.159 0 1 0 6.318 0" fill="url(#d)" opacity=".5"/>
 <path d="m12.482,23.235 .029.068c.342.636 1.2-.219.76-.604-.339-.296-.922.129-.789.536z" fill="#fff"/>
 <path d="m25.458,23.667 .029.068c.342.636 1.2-.219.76-.604-.338-.297-.922.128-.789.536z" fill="#fff"/>
 <path d="m10.5,19c1.371-1.322 2.559-2.821 4.38-3.514 1.118-.426 3.02-1.109 3.671.37-.491.305-1.268-.155-1.801-.191-.837-.057-1.684.361-2.398.752-1.313.718-2.48,1.765-3.769,2.5" fill="#006e3a"/>
 <path d="m30.262,17.394c-.43-.975-1.826-1.714-2.739-2.124-.61-.273-1.167-.423-1.83-.4-.325.011-1.645.181-.8.637 .284.154.949-.068 1.254-.054 1.347.062 3.184.972 4.115,1.941z" fill="#006e3a"/>
</svg>
